<?xml version="1.0" encoding="UTF-8"?>
<svg id="Layer_1" xmlns="http://www.w3.org/2000/svg" viewBox="0 0 32 32">
  <defs>
    <style>
      .cls-1 {
        fill: #1258a8;
      }

      .cls-2 {
        fill: #1c468e;
      }

      .cls-3 {
        fill: #f0e919;
      }

      .cls-4 {
        fill: #0d4fa2;
      }

      .cls-5 {
        fill: #365caa;
      }

      .cls-6 {
        fill: #3762ae;
      }

      .cls-7 {
        fill: #323031;
      }
    </style>
  </defs>
  <path class="cls-3" d="M16,2.13C6.02,2.13,2,7.53,1.84,7.76c-.18.25-.27.55-.25.86.01.22.36,5.56,2.2,10.98,2.56,7.55,6.78,11.54,12.21,11.54s9.66-3.99,12.21-11.54c1.84-5.42,2.18-10.76,2.2-10.98.02-.31-.07-.61-.25-.86-.17-.23-4.18-5.63-14.16-5.63Z"/>
  <path class="cls-7" d="M16,.86C6.02.86,2,6.26,1.84,6.49c-.18.25-.27.55-.25.86.01.22.36,5.56,2.2,10.98,2.56,7.55,6.78,11.54,12.21,11.54s9.66-3.99,12.21-11.54c1.84-5.42,2.18-10.76,2.2-10.98.02-.31-.07-.61-.25-.86-.17-.23-4.18-5.63-14.16-5.63Z"/>
  <g>
    <g>
      <path class="cls-2" d="M27.9,7.87s-1.2,19.35-11.9,19.35v1.56c12.09,0,13.45-21.86,13.45-21.86,0,0-3.77-5.22-13.45-5.22v1.56c8.56,0,11.9,4.62,11.9,4.62Z"/>
      <path class="cls-1" d="M2.55,6.92s1.35,21.86,13.45,21.86v-1.56C5.3,27.22,4.1,7.87,4.1,7.87c0,0,3.34-4.62,11.9-4.62v-1.56C6.33,1.69,2.55,6.92,2.55,6.92Z"/>
      <path class="cls-5" d="M4.1,7.87s1.2,19.35,11.9,19.35V3.25C7.44,3.25,4.1,7.87,4.1,7.87Z"/>
      <path class="cls-4" d="M27.9,7.87s-3.34-4.62-11.9-4.62v23.97c10.7,0,11.9-19.35,11.9-19.35Z"/>
    </g>
    <path class="cls-6" d="M6.33,16.45c-.1,0-.2-.07-.23-.17-1.17-3.91-1.52-7.88-1.53-7.92-.01-.13.09-.25.22-.26.13,0,.25.09.26.22,0,.04.35,3.96,1.51,7.82.04.13-.03.26-.16.3-.02,0-.05.01-.07.01Z"/>
    <path class="cls-6" d="M7.46,19.58c-.09,0-.18-.05-.22-.14-.59-1.27-.8-2.04-.81-2.07-.03-.13.04-.26.17-.29.13-.03.26.04.29.17,0,0,.2.76.78,1.99.06.12,0,.26-.12.32-.03.02-.07.02-.1.02Z"/>
  </g>
</svg>