<?xml version="1.0" encoding="UTF-8"?>
<svg id="Layer_1" xmlns="http://www.w3.org/2000/svg" viewBox="0 0 32 32">
  <defs>
    <style>
      .cls-1 {
        fill: #1258a8;
      }

      .cls-2 {
        fill: #1c468e;
      }

      .cls-3 {
        fill: #231f20;
      }

      .cls-4 {
        fill: #a43231;
      }

      .cls-5 {
        fill: #fff;
      }

      .cls-6 {
        fill: #f0e919;
      }

      .cls-7 {
        fill: #0d4fa2;
      }

      .cls-8 {
        fill: #365caa;
      }

      .cls-9 {
        fill: #3762ae;
      }

      .cls-10 {
        fill: #d0d2d3;
      }

      .cls-11 {
        fill: #f05d8e;
      }

      .cls-12 {
        fill: #497e3b;
      }

      .cls-13 {
        fill: #323031;
      }
    </style>
  </defs>
  <g>
    <path class="cls-6" d="M15.06,4.81c-8.81,0-12.35,4.77-12.5,4.97-.16.22-.24.49-.22.76.01.2.32,4.91,1.94,9.69,2.26,6.66,5.98,10.19,10.78,10.19s8.52-3.52,10.78-10.19c1.62-4.79,1.93-9.5,1.94-9.69.02-.27-.06-.54-.22-.76-.15-.2-3.69-4.97-12.5-4.97Z"/>
    <path class="cls-13" d="M15.06,3.69C6.25,3.69,2.71,8.46,2.56,8.66c-.16.22-.24.49-.22.76.01.2.32,4.91,1.94,9.69,2.26,6.66,5.98,10.19,10.78,10.19s8.52-3.52,10.78-10.19c1.62-4.79,1.93-9.5,1.94-9.69.02-.27-.06-.54-.22-.76-.15-.2-3.69-4.97-12.5-4.97Z"/>
    <g>
      <g>
        <path class="cls-2" d="M25.57,9.88s-1.06,17.08-10.5,17.08v1.37c10.67,0,11.87-19.29,11.87-19.29,0,0-3.33-4.61-11.87-4.61v1.37c7.56,0,10.5,4.08,10.5,4.08Z"/>
        <path class="cls-1" d="M3.19,9.03s1.2,19.29,11.87,19.29v-1.37c-9.45,0-10.5-17.08-10.5-17.08,0,0,2.95-4.08,10.5-4.08v-1.37c-8.54,0-11.87,4.61-11.87,4.61Z"/>
        <path class="cls-8" d="M4.56,9.88s1.06,17.08,10.5,17.08V5.8c-7.56,0-10.5,4.08-10.5,4.08Z"/>
        <path class="cls-7" d="M25.57,9.88s-2.95-4.08-10.5-4.08v21.16c9.45,0,10.5-17.08,10.5-17.08Z"/>
      </g>
      <path class="cls-9" d="M6.53,17.45c-.09,0-.18-.06-.2-.15-1.03-3.45-1.34-6.95-1.35-6.99-.01-.12.08-.22.19-.23.12,0,.22.08.23.19,0,.03.31,3.49,1.33,6.9.03.11-.03.23-.14.26-.02,0-.04,0-.06,0Z"/>
      <path class="cls-9" d="M7.53,20.21c-.08,0-.16-.05-.19-.12-.52-1.12-.7-1.8-.71-1.83-.03-.11.04-.23.15-.26.11-.03.23.04.26.15,0,0,.18.67.69,1.76.05.11,0,.23-.1.28-.03.01-.06.02-.09.02Z"/>
    </g>
  </g>
  <g>
    <path class="cls-4" d="M21.16,16.87c-.05.2-.1.4-.16.59-.12.39-.25.78-.41,1.15-.32.75-.74,1.45-1.27,2.06-.27.3-.56.57-.88.81-.32.24-.67.43-1.04.59-.37.15-.75.27-1.15.34-.2.04-.4.06-.6.07-.2.02-.4.02-.6.02-.41,0-.8-.02-1.2-.09-.39-.07-.78-.18-1.15-.34-.37-.15-.72-.35-1.04-.59-.32-.24-.62-.51-.88-.81-.53-.6-.95-1.31-1.27-2.06-.16-.37-.3-.76-.41-1.15-.06-.2-.11-.39-.16-.59-.02-.09-.04-.18-.06-.28.2.28.58.75,1.21,1.22.9.67,2.48,1.46,4.95,1.47h.04c2.48,0,4.06-.8,4.95-1.47.58-.43.95-.85,1.16-1.14-.01.07-.03.13-.04.2Z"/>
    <path class="cls-5" d="M21.12,16.63c-.22.28-.57.68-1.11,1.07-.9.67-2.48,1.46-4.95,1.47h-.04c-2.47,0-4.06-.8-4.95-1.47-.52-.39-.87-.77-1.09-1.05,1.02,1.72,2.88,3.78,5.99,3.85h0s.05,0,.07,0c.02,0,.05,0,.07,0h0c3.12-.07,4.99-2.15,6.01-3.87Z"/>
    <path class="cls-11" d="M18.27,21.58c-.86-.51-1.9-.84-3.13-.87h0s-.05,0-.08,0c-.02,0-.05,0-.08,0h0c-1.25.03-2.29.38-3.16.89.27.18.56.34.86.46.37.15.75.27,1.15.34.39.07.79.1,1.2.09.2,0,.4,0,.6-.02.2-.02.4-.04.6-.07.39-.07.78-.18,1.15-.34.31-.13.61-.29.89-.48Z"/>
    <g>
      <path class="cls-13" d="M19.76,15.97c.23-.09.48-.13.73-.13.25,0,.51.05.75.18.24.12.43.33.53.57.1.24.12.5.07.75-.06-.24-.13-.47-.25-.66-.12-.19-.28-.34-.48-.44-.2-.1-.42-.16-.65-.2-.23-.04-.47-.05-.72-.06Z"/>
      <path class="cls-13" d="M10.34,15.97c-.25,0-.49.02-.72.06-.23.04-.45.1-.65.2-.2.1-.36.25-.48.44-.12.19-.19.42-.25.66-.04-.24-.03-.5.08-.75.1-.24.3-.45.53-.57.24-.12.5-.17.75-.18.25,0,.5.04.73.13Z"/>
    </g>
    <path class="cls-13" d="M13.59,24.87c.24.12.48.21.73.29.24.07.49.12.74.13.25.01.5-.02.74-.09.24-.07.47-.19.7-.33-.16.22-.38.39-.63.51-.25.12-.54.17-.82.16-.28-.01-.55-.08-.8-.2-.25-.12-.48-.27-.66-.47Z"/>
    <g>
      <path class="cls-13" d="M15.07,19.27h-.04c-2.47,0-4.06-.8-4.95-1.47-.98-.73-1.36-1.46-1.38-1.49l.22-.11s.38.71,1.32,1.41c.87.64,2.41,1.41,4.82,1.41,4.63,0,6.12-2.79,6.14-2.82l.22.11s-.4.76-1.38,1.49c-.89.67-2.48,1.46-4.95,1.47h0Z"/>
      <path class="cls-13" d="M8.8,16.26c.03.2.07.4.12.6.05.2.1.4.16.59.12.39.25.78.41,1.15.32.75.74,1.46,1.27,2.06.27.3.56.57.88.81.32.24.67.44,1.04.59.37.15.75.27,1.15.34.39.07.79.1,1.2.09.2,0,.4,0,.6-.02.2-.02.4-.04.6-.07.39-.07.78-.18,1.15-.34.37-.15.72-.35,1.04-.59.32-.24.62-.51.88-.81.53-.6.95-1.31,1.27-2.06.16-.37.3-.76.41-1.15.06-.2.11-.39.16-.59.05-.2.09-.4.12-.6-.03.41-.1.82-.19,1.22-.09.4-.21.8-.36,1.19-.29.77-.69,1.52-1.23,2.16-.53.65-1.22,1.17-1.99,1.51-.77.34-1.63.48-2.46.47-.83,0-1.68-.13-2.46-.47-.77-.34-1.46-.87-1.99-1.51-.54-.64-.93-1.39-1.23-2.16-.14-.39-.26-.78-.36-1.18-.09-.4-.16-.81-.19-1.22Z"/>
    </g>
    <g>
      <path class="cls-13" d="M22.29,16.45c.01-.17.02-.35.01-.51-.01-.16-.05-.32-.15-.4-.05-.04-.12-.06-.19-.06-.08,0-.16,0-.24,0-.17,0-.34.03-.52.02.16-.07.32-.12.5-.16.09-.02.18-.03.27-.03.09,0,.2.02.29.09.09.07.14.17.17.26.02.1.03.19.02.28-.02.18-.07.35-.16.51Z"/>
      <path class="cls-13" d="M7.83,16.45c-.09-.15-.14-.32-.16-.51,0-.09,0-.19.02-.28.02-.09.07-.19.17-.26.09-.07.2-.09.29-.09.1,0,.19.01.27.03.17.04.34.1.5.16-.18,0-.35-.02-.52-.02-.08,0-.17,0-.24,0-.08,0-.15.03-.19.06-.1.07-.14.24-.15.4-.01.16,0,.33.01.51Z"/>
    </g>
  </g>
  <g>
    <g>
      <g>
        <g>
          <path class="cls-5" d="M14.66,9.6c.28,2.71,2.16,4.74,4.19,4.53,2.03-.21,3.45-2.59,3.16-5.3-.28-2.71-2.16-4.74-4.19-4.53-2.03.21-3.45,2.59-3.16,5.3Z"/>
          <path class="cls-13" d="M18.56,14.28h0c-.97,0-1.92-.48-2.67-1.35-.75-.86-1.23-2.04-1.36-3.31-.29-2.78,1.18-5.23,3.28-5.45.1-.01.21-.02.31-.02.97,0,1.92.48,2.67,1.35.75.87,1.23,2.04,1.36,3.31.29,2.78-1.18,5.23-3.28,5.45-.1.01-.21.02-.31.02ZM18.12,4.42c-.09,0-.19,0-.28.01-1.95.21-3.32,2.52-3.04,5.15.26,2.48,1.91,4.42,3.76,4.42h0c.09,0,.19,0,.28-.01,1.95-.21,3.32-2.52,3.04-5.15-.26-2.48-1.91-4.42-3.76-4.42Z"/>
        </g>
        <g>
          <path class="cls-12" d="M16.1,9.58c.27,1.42,1.41,2.42,2.54,2.23,1.13-.18,1.82-1.48,1.55-2.9-.27-1.42-1.41-2.42-2.54-2.23-1.13.18-1.82,1.48-1.55,2.9Z"/>
          <path class="cls-13" d="M17.07,9.42c.14.74.74,1.27,1.33,1.17.59-.1.96-.78.81-1.52-.14-.74-.74-1.27-1.33-1.17-.59.1-.96.78-.81,1.52Z"/>
          <path class="cls-5" d="M18.13,8.23c.18.39.58.61.89.49.31-.12.42-.54.24-.93-.18-.39-.58-.61-.89-.49-.31.12-.42.54-.24.93Z"/>
        </g>
        <path class="cls-10" d="M18.31,13.42c1.96-.2,3.32-2.48,3.04-5.09-.13-1.21-.58-2.33-1.23-3.11.93.78,1.6,2.12,1.76,3.64.28,2.61-1.08,4.91-3.04,5.11-1.05.11-2.06-.43-2.82-1.32.67.56,1.46.85,2.28.77Z"/>
      </g>
      <g>
        <g>
          <path class="cls-5" d="M15.62,9.87c-.79,2.8-3.08,4.57-5.11,3.96-2.03-.62-3.03-3.39-2.24-6.19.79-2.8,3.08-4.57,5.11-3.96,2.03.62,3.03,3.39,2.24,6.19Z"/>
          <path class="cls-13" d="M11.34,14.08c-.29,0-.59-.04-.87-.13-2.1-.64-3.14-3.49-2.33-6.36.34-1.19.96-2.26,1.77-3.01.8-.75,1.74-1.17,2.65-1.17.3,0,.59.04.87.13,2.1.64,3.14,3.49,2.33,6.36-.33,1.19-.96,2.26-1.76,3.01-.8.75-1.74,1.17-2.65,1.17ZM12.55,3.69c-1.75,0-3.5,1.67-4.15,3.98-.77,2.73.19,5.43,2.15,6.03.25.08.52.12.79.12,1.75,0,3.5-1.67,4.15-3.98.77-2.73-.19-5.43-2.15-6.03-.25-.08-.52-.12-.79-.12Z"/>
        </g>
        <g>
          <path class="cls-12" d="M13.9,9.49c-.6,1.48-2.04,2.35-3.22,1.95-1.18-.4-1.65-1.93-1.05-3.41.6-1.48,2.04-2.35,3.22-1.95,1.18.4,1.65,1.93,1.05,3.41Z"/>
          <path class="cls-13" d="M12.89,9.14c-.31.78-1.07,1.24-1.69,1.02-.62-.21-.87-1.01-.55-1.79.31-.78,1.07-1.24,1.69-1.02.62.21.87,1.01.55,1.79Z"/>
          <path class="cls-5" d="M12,7.66c-.28.39-.76.55-1.07.36-.31-.19-.34-.66-.06-1.05.28-.39.76-.55,1.07-.36.31.19.34.66.06,1.05Z"/>
        </g>
        <path class="cls-10" d="M11.2,13.19c-1.96-.59-2.92-3.25-2.16-5.94.36-1.25,1.02-2.34,1.83-3.03-1.09.64-2.02,1.93-2.47,3.49-.76,2.69.19,5.38,2.15,5.97,1.05.32,2.18-.05,3.11-.85-.78.46-1.65.62-2.46.37Z"/>
      </g>
    </g>
    <g>
      <path class="cls-13" d="M8.14,3.9c.36-.49.77-.95,1.22-1.36.46-.41.96-.78,1.55-1.02.29-.12.61-.2.94-.21.33-.01.67.05.98.18.31.13.59.33.83.55.24.23.44.48.62.75l-.52.32c-.28-.5-.64-.95-1.12-1.2-.24-.13-.51-.2-.78-.21-.28-.01-.56.03-.84.11-.56.17-1.08.48-1.55.85-.48.37-.92.78-1.32,1.24Z"/>
      <path class="cls-13" d="M21.91,3.9c-.4-.46-.84-.88-1.32-1.24-.48-.36-1-.68-1.55-.85-.28-.08-.56-.13-.84-.11-.28.01-.54.09-.78.21-.48.25-.85.71-1.12,1.2l-.52-.32c.18-.27.38-.52.62-.75.24-.23.52-.42.83-.55.31-.13.65-.19.98-.18.33.01.65.09.94.21.59.24,1.09.61,1.55,1.02.45.41.86.87,1.22,1.36Z"/>
    </g>
    <g>
      <path class="cls-3" d="M19.8,14.41c.36-.07.69-.19.98-.36.3-.17.55-.39.77-.65.21-.26.39-.56.53-.87.14-.32.26-.65.38-1,.02.36-.02.73-.13,1.09-.11.36-.28.7-.52,1-.24.29-.56.53-.91.67-.18.07-.36.12-.55.14-.19.02-.37.02-.55-.02Z"/>
      <path class="cls-3" d="M10.26,14.41c-.18.04-.37.04-.55.02-.19-.02-.37-.07-.55-.14-.35-.14-.67-.38-.91-.67-.24-.29-.41-.64-.52-1-.1-.36-.15-.73-.13-1.09.12.35.23.68.38,1,.14.32.32.61.53.87.21.26.47.48.77.65.3.17.63.29.98.36Z"/>
    </g>
  </g>
</svg>