<?xml version="1.0" encoding="UTF-8"?>
<svg xmlns="http://www.w3.org/2000/svg" version="1.1" viewBox="0 0 300 300">
  <defs>
    <style>
      .cls-1 {
        fill: #010101;
      }

      .cls-2 {
        fill: #0d4fa2;
      }

      .cls-3, .cls-4 {
        isolation: isolate;
      }

      .cls-4 {
        fill: #c9c9d9;
        mix-blend-mode: multiply;
      }

      .cls-5 {
        fill: #3762ae;
      }
    </style>
  </defs>
  <!-- Generator: Adobe Illustrator 28.7.10, SVG Export Plug-In . SVG Version: 1.2.0 Build 236)  -->
  <g>
    <g id="Layer_1">
      <g class="cls-3">
        <g id="Layer_1-2" data-name="Layer_1">
          <g>
            <g>
              <g>
                <path class="cls-2" d="M63.8,178s-33.7,31.7-6.3,55.5,37.4,34.8,62.2,15.8c24.9-19-55.9-71.3-55.9-71.3Z"/>
                <path class="cls-4" d="M73.3,247.1h0c16.7,13.6,27.1,17.1,46.5,2.2,11.7-8.9,0-25.3-15.8-40.1.2,18.8-5,40.5-30.7,37.9Z"/>
                <path class="cls-1" d="M63.6,175.5c-18.8,17.8-27.2,42.2-7.4,59.5,27.5,23.8,38.5,35.9,64.8,15.8,23.2-17.8-32.7-59.3-57.4-75.3ZM118.5,247.7c-23.6,18.1-32.5,8-59.7-15.7-17.2-15-10.2-35.3,5.3-51.4,19.8,13.2,73.4,52.7,54.4,67.1Z"/>
              </g>
              <g>
                <path class="cls-2" d="M209.7,174.1c-5-22-13.4-19.2-13.4-19.2,0,0,6.2-16.1-13.3-30.6-2.8-2-6.3-2.7-9.5-1.8h0c3.1-4.4,6.7-8.9,11.1-13.5,9.8-10.1,20.7-18.8,31.5-27.7,3.7-3.1,7.2-7,8.1-11.7.7-3.6,0-7.2-1.3-10.6-1.5-4.2-3.5-8.3-6.6-11.5-4.7-5-11.9-7.6-18.7-7-15.4,1.5-27.1,20.9-35.2,32.3-8,11.4-13.2,20.7-20.6,32.4-9.4,14.9-24.7,23-31,25.5-3.4-.6-2.7-1.1-4.4-2.9-11.2-12.2,1.6-34.6-17.9-54.3-19.5-19.7-43.5-15.2-45.6-5-2.1,10.2,24,19.6,19.5,35.7-4.2,15.4-23.9,85.7,7.4,109.3,3.7,2.8,7.3,5.4,10.8,8.4,10.9,8.9,33.2,25.2,48.1,21.9,20.3-4.6,85.8-47.9,80.9-69.9v.2Z"/>
                <path class="cls-4" d="M209.7,174.1c-1.1-5.1-2.4-8.9-3.8-11.7-2.8,7.3-7.3,16.7-14.7,26.2-14.5,18.7-66.6,50.5-97.3,43.4,11.1,7.4,24.7,14.2,34.9,11.9,20.3-4.6,85.8-47.9,80.9-69.9Z"/>
                <path class="cls-4" d="M196.6,143.2c-8.5,23.1-27.9,41.8-27.9,41.8,11.4-2.5,27.6-29.9,27.6-29.9,0,0,.4-2.6.9-6.1,0-1.7-.2-3.7-.7-5.8Z"/>
                <path class="cls-4" d="M173.4,122.8c3.1-4.4,6.7-8.9,11.1-13.5,9.8-10.1,20.7-18.8,31.5-27.7,3.7-3.1,7.2-7,8.1-11.7.7-3.6,0-7.2-1.3-10.6h0c-1.2,2.7-3.4,6.3-7.2,11.1-10.8,13.5-45.6,35.9-52,43.5-6.4,7.6-14.3,27.6-14.3,27.6l24.1-18.5h0Z"/>
                <path class="cls-1" d="M211.1,173.9c-1.6-7.4-5.4-19.2-12.8-20.5,3-16-11.8-32.3-21.5-32.7,26.6-35.4,56.1-37.1,47.5-62.1-5.1-14.8-16.3-20.6-27-19.6-14.7,1.4-25.8,17.7-34,29.7-23.1,33.6-33.3,51.8-51,59.8-2,.9-4.3.3-5.7-1.3h0c-9.8-12.1,2.9-34.5-17.1-54.5-20.6-20.7-45.9-15.8-48.3-4.1-1.1,5.4,3.7,10.1,8.9,15.1,15.8,15.3,10.1,19.6,10.5,21-25.4,92.5,5.6,106.6,8.8,111,14.2,10.7,40.5,34.3,59.6,30.1,21.1-4.7,87.4-48.6,82.2-71.8h0ZM128.4,242.4c-16.4,3.7-44.8-19.1-57.6-29.9-33.1-24.9-7-105.1-6.8-107.6,4.6-17-21.4-27.1-19.5-35.8,1.9-9,24.5-12.8,42.8,5.8,19.7,19.9,4.3,47.5,19,56.2,2.4,1.5,5.4,1.5,8,.4,24.6-11.5,29.2-28,51.7-61,7.8-11.4,18.4-27,31.6-28.2,6.3-.7,12.9,1.9,17.3,6.4,4.6,4.8,8.6,14.6,7.5,20.7-1.2,6.3-7.1,10.4-12.1,14.5-29.9,24.6-31.3,28.4-41,41.5,2.4-.3,7.5-3.5,12.6.2,18.2,13.4,13,28,12.8,28.6l-1.3,3.3c3-1,3.8-1.9,6.1-.5,2,1.2,5.8,5,8.5,17.3,4.6,20.5-59.5,63.5-79.7,67.9h.2Z"/>
              </g>
              <path class="cls-1" d="M149.3,141.2c22.2-18.1,24.5-22.7,26.5-20.3,2.2,2.6-4.1,4.1-26.5,20.3Z"/>
              <path class="cls-1" d="M167.9,186.1c26.6-18.4,24.8-34.9,29.3-32.6,4.5,2.3-10.9,21.8-29.3,32.6Z"/>
              <path class="cls-1" d="M254.4,41.2c7,16.2,6.8,36.2-6.1,47.9-1.1,1-2.5-.6-1.5-1.6,1.3-2.4,17-15.4,7.6-46.3Z"/>
              <path class="cls-1" d="M238.1,49.1c7,20,4.1,43.7-11.5,58.5-1.2,1.1-3-.7-1.9-1.9.6-2,22-18.8,13.4-56.6Z"/>
            </g>
            <path class="cls-5" d="M66.1,149.8s-10.7,25.8,6.6,50.2c17.3,24.5,47.9,18.9,64.1,8.5,16.2-10.3,14.1-20.2-13-37.3s-49-45.3-57.7-21.5Z"/>
            <path class="cls-5" d="M198.8,50.6s-24.8,20.2-22.3,31.5c2.5,11.3,38.9-14.5,33.1-24.6-5.9-10.2-10.8-6.9-10.8-6.9Z"/>
          </g>
        </g>
      </g>
    </g>
  </g>
</svg>