<?xml version="1.0" encoding="UTF-8"?>
<svg xmlns="http://www.w3.org/2000/svg" viewBox="0 0 400 400">
  <defs>
    <style>
      .cls-1 {
        fill: #265fc1;
      }

      .cls-2 {
        fill: #f7ff0f;
      }

      .cls-3 {
        fill: #c9c9da;
        mix-blend-mode: multiply;
      }

      .cls-4 {
        fill: #d0d2d3;
      }

      .cls-5 {
        fill: #fff;
      }

      .cls-6 {
        fill: #004ca6;
      }

      .cls-7 {
        fill: #497e35;
      }

      .cls-8 {
        fill: #231f20;
      }

      .cls-9 {
        isolation: isolate;
      }

      .cls-10 {
        fill: #0556ab;
      }

      .cls-11 {
        fill: #323031;
      }

      .cls-12 {
        fill: #f25c8e;
      }

      .cls-13 {
        fill: #004192;
      }

      .cls-14 {
        fill: #2559bd;
      }

      .cls-15 {
        fill: #a43030;
      }
    </style>
  </defs>
  <g class="cls-9">
    <g id="Layer_1">
      <g>
        <path class="cls-2" d="M192.08,117.15c-66.01,0-92.59,35.75-93.68,37.27-1.19,1.65-1.77,3.65-1.64,5.68.09,1.48,2.39,36.77,14.54,72.65,16.91,49.94,44.84,76.34,80.79,76.34s63.88-26.4,80.79-76.34c12.15-35.88,14.45-71.17,14.54-72.65.13-2.03-.45-4.03-1.64-5.68-1.1-1.52-27.67-37.27-93.68-37.27Z"/>
        <path class="cls-11" d="M192.08,108.74c-66.01,0-92.59,35.75-93.68,37.27-1.19,1.65-1.77,3.65-1.64,5.68.09,1.48,2.39,36.77,14.54,72.65,16.91,49.94,44.84,76.34,80.79,76.34s63.88-26.4,80.79-76.34c12.15-35.88,14.45-71.17,14.54-72.65.13-2.03-.45-4.03-1.64-5.68-1.1-1.52-27.67-37.27-93.68-37.27Z"/>
        <g>
          <g>
            <path class="cls-13" d="M270.8,155.14s-7.93,128-78.73,128v10.29c79.99,0,88.94-144.62,88.94-144.62,0,0-24.96-34.55-88.94-34.55v10.29c56.64,0,78.73,30.58,78.73,30.58Z"/>
            <path class="cls-10" d="M103.13,148.82s8.96,144.62,88.94,144.62v-10.29c-70.8,0-78.73-128-78.73-128,0,0,22.09-30.58,78.73-30.58v-10.29c-63.99,0-88.94,34.55-88.94,34.55Z"/>
            <path class="cls-14" d="M113.35,155.14s7.93,128,78.73,128V124.55c-56.64,0-78.73,30.58-78.73,30.58Z"/>
            <path class="cls-6" d="M270.8,155.14s-22.09-30.58-78.73-30.58v158.59c70.8,0,78.73-128,78.73-128Z"/>
          </g>
          <path class="cls-1" d="M128.11,211.87c-.68,0-1.31-.44-1.52-1.13-7.75-25.89-10.08-52.12-10.1-52.38-.08-.87.57-1.64,1.44-1.72.87-.07,1.64.57,1.72,1.44.02.26,2.33,26.18,9.98,51.74.25.84-.23,1.72-1.06,1.97-.15.05-.31.07-.46.07Z"/>
          <path class="cls-1" d="M135.6,232.57c-.6,0-1.17-.34-1.44-.92-3.92-8.43-5.28-13.49-5.34-13.7-.22-.85.28-1.71,1.13-1.94.85-.23,1.71.28,1.94,1.13.01.05,1.36,5.03,5.15,13.17.37.79.03,1.74-.77,2.11-.22.1-.44.15-.67.15Z"/>
        </g>
      </g>
      <g>
        <g>
          <g>
            <path class="cls-6" d="M109.46,246.89s5.04,5.72,1.21,11.13c-3.84,5.4-10.29-3.6-21.27-9.87-10.98-6.27-27.43-2.31-13.79-12.85,6.11-4.72,16.62-4.93,21.88.72l11.97,10.88Z"/>
            <path class="cls-3" d="M75.61,235.29c2.54-1.97,5.85-3.15,9.23-3.45,10.57,1.43,15.22,9.72,20.24,14.74,3.02,3.02,4.88,7.19,6.01,10.8-.13.22-.26.43-.42.65-3.84,5.4-10.29-3.6-21.27-9.87-10.98-6.27-27.43-2.31-13.79-12.85Z"/>
            <path d="M69.86,241.6c.83,3.58,11.3,2.56,19.22,7.09,8.72,4.98,14.45,11.62,18.71,11.62s7.43-7.82,2.13-13.83c-15.72-14.29-11.14-10.12-12-10.91-10.09-10.8-29.25.9-28.06,6.03ZM75.99,235.79c5.61-4.34,15.8-4.98,21.03.65,15.71,14.28,11.11,10.1,11.98,10.89,4.51,5.26,1.92,11.27-.79,11.69-3.57.55-9.72-6.4-18.51-11.42-11.75-6.72-26.42-1.99-13.72-11.81Z"/>
          </g>
          <path class="cls-6" d="M76.61,239.84h0c-5.69,0-11.29,1.42-16.29,4.13-10.17,5.5-26.99,14.93-29.04,18.19-2.96,4.71-13.15,17.64-15.29,23.16-2.42,6.24,1.46,9.54,8.49,7.7,6.78-1.78,18.13-7.67,19-20.05.1-1.39,7.32,3.66,18.48,3.66,0,0,13.25,7.67,30.16,6.1,0,0,7.8,15.28,18.54,15.28,10.74,0,16.59-8.4,10.92-14.06-5.67-5.67-8.54-5.58-13.07-13.25-4.53-7.67.26-12.35-1.52-15.5-1.79-3.14-19.05-14.32-30.38-15.36Z"/>
          <path class="cls-3" d="M53.89,260.64s-14.69,7.52-14.73,8.14c-.87,12.38-7.89,22.45-14.67,24.23-2.12.55-3.95.64-5.4.33-.84-7.85,15.2-28.47,15.2-28.47l19.61-4.22Z"/>
          <path d="M15.9,292.27c4.98,5.58,26.73-2.46,28.18-18.9,1.97.44,8.62,3.83,17.72,3.87,1.52.83,14.2,7.46,29.96,6.14,12.2,22.55,29.12,15.38,32.09,8.23,2.27-5.48-2.39-9.01-7.08-12.65-15.65-12.11-6.79-19.78-9.23-24.08-1.98-3.48-19.48-14.63-30.87-15.68-1.19.15-8.37-.28-16.65,4.2-30.72,16.62-28.07,16.93-33.89,25.02-7.07,9.83-14.51,19.06-10.23,23.85ZM16.58,285.54c1.41-3.65,6.49-10.71,10.57-16.38,5.73-7.97,3.03-8.18,33.47-24.65,4.89-2.65,10.41-4.05,15.96-4.05,11.34,1.06,28.26,12.23,29.86,15.04,1.93,3.4-6.53,12.01,9.56,24.45,4.58,3.54,8.61,6.56,6.69,11.17-2.73,6.59-19.03,12.78-30.01-8.69l-.19-.38s-16.61,1.9-30.21-5.98l-.15-.08c-1.2-.19-5.32.64-15.53-3.09-1.97-.72-2.79-1.02-3.35-.65-.85.55-.16,15.24-18.92,20.16-6.19,1.62-10.08-.84-7.74-6.86Z"/>
          <path class="cls-6" d="M56.38,268.95s1.92,12.9-9.76,24.58c-11.68,11.68-20.38,10.66-23,4.03-2.62-6.62,16.03-29.4,16.03-29.4l16.74.78Z"/>
          <path class="cls-3" d="M31.51,302.43l11.06-30.42,1.27-.94c2.27-1.69,4.75-3.06,7.38-4.09l16.12-6.33s-9.04,21.21-20.72,32.89c-5.95,5.95-11.12,8.6-15.11,8.9Z"/>
          <path d="M39.25,267.66c14.31-6.8,14.89-8.02,15.42-6.95.15.31.03.69-.28.84l-14.34,7.11c-5.18,6.34-17.87,23.54-15.84,28.67,3.51,8.89,14.53,3.2,21.97-4.25.24-.24.64-.24.89,0,1.62,1.62-18.71,18.18-24.03,4.71-2.46-6.24,12.06-25.04,16.21-30.13Z"/>
          <path class="cls-6" d="M68.33,274.53s2.35,11.51-8.11,20.05c-7.13,5.82-14.5,4.4-18.47,2-1.73-1.04-2.29-4.7-1.26-6.43l6.27-14.96,20.06-14.03,1.5,13.38Z"/>
          <path d="M39.36,290.23c.12-.35,7.08-15.79,7.09-15.82,18.82-13.19,4.78-3.36,20.01-13.93.28-.2.67-.13.87.16.69.99-.39.71-19.86,14.62-6.33,14-9.4,18.28-5.51,20.62,13.7,7.62,28.17-7.73,25.74-21.24-.04-.21.1-.41.31-.45,1.02-.19,2.37,11.22-6.09,19.41-9.29,8.98-25.59,5.94-22.57-3.37Z"/>
          <path d="M72.26,294.05c-8.05,11.28-13.39,11.97-13.19,11.9-3.41,1.03-6.43,1.19-9.07.62-4.12.79,11.05,7.83,22.25-12.52Z"/>
        </g>
        <path class="cls-1" d="M108.86,277.08s11.52,8.76,11.52,10.73-6.01,4.03-11.52-1.48c-5.52-5.52-4.77-10.11,0-9.25Z"/>
        <path class="cls-1" d="M59.72,279.91s-6.3,12.47-13.1,13.62c-6.8,1.15-.06-16.51,2.8-17.45,2.86-.94,10.3-.06,10.3,3.83Z"/>
        <path class="cls-1" d="M70.44,245.72s20.32,1.54,20.32,7.25c0,5.71-42.94,4.27-38.67,0,4.27-4.27,18.35-7.25,18.35-7.25Z"/>
      </g>
      <g>
        <path class="cls-15" d="M237.8,207.52c-.35,1.5-.74,2.98-1.18,4.45-.87,2.94-1.89,5.82-3.1,8.62-2.4,5.61-5.52,10.9-9.51,15.43-2,2.26-4.22,4.31-6.62,6.09-2.41,1.78-5.03,3.26-7.79,4.41-2.76,1.16-5.64,2-8.59,2.52-1.47.26-2.97.44-4.46.55-1.5.12-2.98.14-4.52.13-3.04.04-6.03-.16-8.98-.69-2.95-.51-5.83-1.37-8.59-2.51-2.76-1.15-5.37-2.63-7.79-4.41-2.41-1.78-4.63-3.83-6.62-6.09-3.99-4.53-7.11-9.83-9.51-15.43-1.21-2.8-2.23-5.69-3.11-8.63-.43-1.47-.83-2.95-1.18-4.45-.16-.68-.32-1.37-.45-2.07,1.48,2.12,4.35,5.61,9.07,9.12,6.71,4.99,18.59,10.93,37.14,11.01h.33c18.55-.07,30.43-6.01,37.14-11.01,4.31-3.21,7.08-6.41,8.66-8.55-.1.5-.22.99-.33,1.49Z"/>
        <path class="cls-5" d="M237.49,205.76c-1.62,2.12-4.29,5.08-8.29,8.06-6.71,4.99-18.58,10.94-37.13,11.01h-.33c-18.55-.07-30.43-6.01-37.13-11.01-3.9-2.9-6.53-5.78-8.17-7.89,7.62,12.86,21.61,28.34,44.92,28.82v.02c.19,0,.37-.01.56-.01.18,0,.37.01.56.01v-.02c23.41-.49,37.41-16.09,45.01-28.99Z"/>
        <path class="cls-12" d="M216.1,242.89c-6.48-3.79-14.23-6.32-23.43-6.51v-.02c-.19,0-.37,0-.56.01-.18,0-.37-.01-.56-.01v.02c-9.33.2-17.17,2.8-23.7,6.67,2.03,1.36,4.2,2.53,6.45,3.47,2.76,1.15,5.64,2,8.59,2.51,2.96.52,5.94.73,8.98.69,1.53,0,3.02-.02,4.52-.13,1.5-.11,2.98-.29,4.46-.55,2.95-.51,5.84-1.36,8.59-2.52,2.34-.98,4.58-2.19,6.68-3.63Z"/>
        <g>
          <path class="cls-11" d="M227.26,200.83c1.73-.71,3.6-1,5.49-1,1.89.02,3.84.39,5.61,1.32,1.76.91,3.25,2.47,4,4.29.77,1.82.9,3.78.56,5.6-.43-1.8-.94-3.51-1.84-4.95-.87-1.44-2.11-2.56-3.57-3.33-1.47-.77-3.14-1.22-4.87-1.5-1.74-.28-3.53-.38-5.38-.43Z"/>
          <path class="cls-11" d="M156.67,200.83c-1.85.05-3.64.15-5.38.43-1.73.28-3.41.73-4.87,1.5-1.47.77-2.7,1.88-3.58,3.33-.89,1.44-1.41,3.15-1.84,4.95-.34-1.82-.2-3.78.56-5.6.75-1.82,2.24-3.38,4-4.29,1.77-.93,3.72-1.29,5.61-1.32,1.89,0,3.77.29,5.49,1Z"/>
        </g>
        <path class="cls-11" d="M181.07,267.5c1.81.88,3.62,1.61,5.45,2.17,1.83.56,3.7.93,5.56,1.01,1.86.08,3.72-.14,5.52-.7,1.81-.54,3.54-1.44,5.26-2.48-1.21,1.62-2.85,2.94-4.74,3.82-1.89.88-4.03,1.28-6.12,1.18-2.1-.09-4.14-.64-6-1.5-1.85-.87-3.57-2.01-4.94-3.51Z"/>
        <g>
          <path class="cls-11" d="M192.13,225.53h-.33c-18.54-.07-30.41-6.01-37.12-11-7.36-5.47-10.22-10.91-10.34-11.14l1.62-.84c.03.05,2.84,5.35,9.89,10.57,6.5,4.81,18.03,10.54,36.11,10.58,34.69-.07,45.89-20.94,46-21.15l1.63.84c-.12.23-2.98,5.66-10.34,11.14-6.7,4.99-18.58,10.93-37.12,11h0Z"/>
          <path class="cls-11" d="M145.15,202.97c.23,1.52.54,3.03.89,4.52.35,1.49.74,2.97,1.18,4.44.87,2.94,1.89,5.83,3.1,8.63,2.4,5.6,5.51,10.91,9.5,15.44,2,2.25,4.22,4.3,6.63,6.09,2.42,1.78,5.03,3.26,7.79,4.41,2.76,1.15,5.64,2,8.59,2.52,2.96.52,5.94.72,8.98.68,1.53,0,3.02-.02,4.52-.13,1.5-.12,2.99-.29,4.46-.55,2.95-.52,5.84-1.36,8.59-2.52,2.76-1.15,5.38-2.64,7.79-4.42,2.41-1.78,4.63-3.83,6.63-6.09,3.98-4.53,7.11-9.83,9.5-15.44,1.21-2.8,2.23-5.69,3.1-8.63.44-1.47.83-2.95,1.17-4.45.35-1.49.67-3,.9-4.52-.24,3.07-.77,6.11-1.45,9.13-.7,3.01-1.59,5.98-2.67,8.88-2.18,5.8-5.16,11.36-9.19,16.18-3.99,4.84-9.12,8.8-14.92,11.33-5.8,2.54-12.19,3.56-18.43,3.5-6.24.05-12.63-.96-18.43-3.5-5.8-2.53-10.93-6.5-14.92-11.33-4.03-4.82-7-10.39-9.19-16.18-1.08-2.91-1.98-5.87-2.67-8.88-.69-3.01-1.22-6.06-1.46-9.13Z"/>
        </g>
        <g>
          <path class="cls-11" d="M246.27,204.44c.09-1.31.18-2.59.1-3.81-.08-1.2-.37-2.41-1.11-2.96-.36-.27-.88-.42-1.45-.48-.57-.06-1.19-.05-1.81-.01-1.25.06-2.56.22-3.88.17,1.22-.5,2.43-.94,3.73-1.22.65-.13,1.32-.24,2.04-.22.7.03,1.5.17,2.18.67.69.52,1.06,1.26,1.24,1.97.18.72.2,1.43.13,2.11-.13,1.36-.53,2.64-1.19,3.79Z"/>
          <path class="cls-11" d="M137.88,204.44c-.65-1.15-1.05-2.44-1.19-3.79-.06-.68-.04-1.39.14-2.11.18-.71.56-1.45,1.24-1.97.69-.5,1.48-.65,2.19-.67.72-.02,1.39.09,2.04.22,1.3.29,2.51.73,3.73,1.22-1.33.05-2.62-.11-3.88-.17-.63-.03-1.24-.05-1.82.01-.57.06-1.09.21-1.45.48-.73.55-1.03,1.77-1.1,2.96-.08,1.23,0,2.5.1,3.81Z"/>
        </g>
      </g>
      <g>
        <g>
          <g>
            <g>
              <path class="cls-5" d="M189.09,153.06c2.13,20.34,16.2,35.53,31.42,33.92,15.22-1.61,25.83-19.4,23.71-39.74-2.13-20.34-16.2-35.53-31.42-33.92-15.23,1.61-25.84,19.39-23.71,39.73Z"/>
              <path class="cls-11" d="M218.3,188.11h0c-7.27,0-14.37-3.59-20-10.12-5.6-6.48-9.22-15.31-10.22-24.83-2.19-20.87,8.86-39.19,24.61-40.86.77-.08,1.55-.12,2.32-.12,7.27,0,14.37,3.59,20,10.11,5.6,6.49,9.22,15.31,10.22,24.83,2.18,20.87-8.86,39.2-24.62,40.86-.77.08-1.55.12-2.32.12ZM215.01,114.23c-.7,0-1.41.04-2.11.11-14.63,1.55-24.86,18.87-22.79,38.61,1.94,18.57,14.33,33.12,28.19,33.12h0c.7,0,1.4-.03,2.1-.11,14.63-1.55,24.86-18.86,22.8-38.61-1.95-18.57-14.33-33.12-28.19-33.12Z"/>
            </g>
            <g>
              <path class="cls-7" d="M199.87,152.87c2.06,10.62,10.57,18.11,19.03,16.72,8.45-1.38,13.64-11.12,11.59-21.74-2.05-10.62-10.57-18.11-19.02-16.72-8.46,1.39-13.65,11.12-11.6,21.74Z"/>
              <path class="cls-11" d="M207.14,151.68c1.08,5.58,5.55,9.52,9.99,8.79,4.45-.73,7.17-5.84,6.09-11.42-1.07-5.58-5.55-9.52-10-8.79-4.44.72-7.16,5.84-6.09,11.42Z"/>
              <path class="cls-5" d="M215.1,142.76c1.36,2.94,4.36,4.58,6.71,3.66,2.33-.91,3.13-4.05,1.76-6.98-1.36-2.93-4.36-4.57-6.7-3.66-2.34.92-3.13,4.05-1.77,6.99Z"/>
            </g>
            <path class="cls-4" d="M216.39,181.69c14.68-1.52,24.9-18.59,22.82-38.11-.97-9.06-4.36-17.46-9.24-23.28,6.94,5.82,12,15.9,13.21,27.25,2.07,19.53-8.1,36.79-22.78,38.32-7.87.82-15.47-3.2-21.1-9.92,5,4.19,10.95,6.38,17.09,5.75Z"/>
          </g>
          <g>
            <g>
              <path class="cls-5" d="M196.25,155.05c-5.94,21.01-23.08,34.28-38.28,29.66-15.21-4.63-22.72-25.41-16.78-46.42,5.94-21.01,23.08-34.29,38.28-29.66,15.21,4.63,22.72,25.41,16.78,46.42Z"/>
              <path class="cls-11" d="M164.17,186.65c-2.21,0-4.4-.32-6.5-.96-15.71-4.78-23.54-26.17-17.47-47.68,2.52-8.88,7.21-16.9,13.23-22.57,5.99-5.65,13.03-8.75,19.84-8.75,2.22,0,4.4.33,6.51.97,15.71,4.78,23.54,26.17,17.46,47.68-2.51,8.89-7.21,16.91-13.23,22.57-5.98,5.64-13.03,8.75-19.84,8.75ZM173.26,108.73c-13.13,0-26.21,12.55-31.1,29.83-5.78,20.45,1.44,40.71,16.09,45.17,1.91.58,3.89.87,5.91.87,13.13,0,26.21-12.54,31.1-29.83,5.78-20.45-1.44-40.71-16.1-45.17-1.91-.58-3.89-.88-5.91-.88Z"/>
            </g>
            <g>
              <path class="cls-7" d="M183.37,152.21c-4.49,11.1-15.29,17.63-24.13,14.61-8.83-3.03-12.35-14.49-7.87-25.58,4.49-11.1,15.29-17.64,24.13-14.61,8.83,3.03,12.36,14.48,7.87,25.58Z"/>
              <path class="cls-11" d="M175.78,149.6c-2.36,5.83-8.03,9.26-12.67,7.67-4.64-1.59-6.49-7.61-4.13-13.44,2.36-5.83,8.03-9.26,12.67-7.67,4.64,1.59,6.49,7.6,4.13,13.43Z"/>
              <path class="cls-5" d="M169.09,138.52c-2.1,2.93-5.69,4.15-8.02,2.73-2.33-1.42-2.52-4.94-.42-7.86,2.1-2.93,5.69-4.15,8.02-2.73,2.33,1.41,2.52,4.93.42,7.86Z"/>
            </g>
            <path class="cls-4" d="M163.14,179.93c-14.68-4.44-21.92-24.38-16.18-44.54,2.67-9.35,7.68-17.55,13.72-22.73-8.14,4.78-15.17,14.44-18.5,26.15-5.73,20.16,1.42,40.31,16.09,44.75,7.87,2.38,16.35-.39,23.33-6.38-5.86,3.45-12.33,4.61-18.47,2.75Z"/>
          </g>
        </g>
        <g>
          <path class="cls-11" d="M140.21,110.31c2.67-3.68,5.74-7.1,9.13-10.19,3.41-3.07,7.2-5.85,11.62-7.63,2.2-.88,4.58-1.47,7.06-1.56,2.47-.1,5.01.35,7.33,1.34,2.33.98,4.4,2.44,6.19,4.13,1.8,1.69,3.33,3.59,4.68,5.59l-3.91,2.42c-2.08-3.71-4.81-7.11-8.42-9.02-1.8-.95-3.8-1.5-5.88-1.6-2.07-.1-4.22.23-6.29.86-4.17,1.27-8.07,3.63-11.65,6.35-3.57,2.74-6.89,5.88-9.86,9.31Z"/>
          <path class="cls-11" d="M243.44,110.31c-2.97-3.43-6.3-6.57-9.87-9.31-3.57-2.71-7.47-5.07-11.64-6.35-2.07-.63-4.21-.96-6.29-.86-2.07.1-4.08.64-5.88,1.6-3.61,1.9-6.34,5.3-8.42,9.02l-3.91-2.42c1.35-1.99,2.88-3.9,4.68-5.59,1.79-1.69,3.87-3.15,6.19-4.13,2.32-.99,4.86-1.44,7.33-1.34,2.47.09,4.85.68,7.06,1.56,4.42,1.78,8.21,4.57,11.61,7.63,3.4,3.09,6.46,6.51,9.13,10.19Z"/>
        </g>
        <g>
          <path class="cls-8" d="M227.57,189.14c2.69-.49,5.15-1.43,7.37-2.69,2.21-1.27,4.14-2.93,5.74-4.87,1.61-1.95,2.91-4.17,3.99-6.54,1.08-2.38,1.94-4.89,2.83-7.49.17,2.73-.17,5.51-.94,8.18-.79,2.67-2.07,5.27-3.9,7.47-1.82,2.21-4.2,3.99-6.84,5.04-1.33.53-2.7.88-4.09,1.05-1.39.14-2.8.17-4.15-.15Z"/>
          <path class="cls-8" d="M156.07,189.14c-1.35.32-2.75.3-4.14.15-1.39-.16-2.77-.52-4.09-1.05-2.64-1.05-5.03-2.83-6.85-5.04-1.83-2.21-3.11-4.8-3.89-7.47-.78-2.67-1.11-5.45-.94-8.18.89,2.6,1.74,5.11,2.83,7.49,1.08,2.37,2.38,4.59,3.98,6.54,1.6,1.94,3.53,3.6,5.74,4.87,2.22,1.26,4.69,2.2,7.37,2.69Z"/>
        </g>
      </g>
      <g>
        <g>
          <g>
            <path class="cls-6" d="M284.24,230.66s-15.19,14.28-2.84,25c12.35,10.72,16.86,15.68,28.05,7.1,11.19-8.58-25.21-32.1-25.21-32.1Z"/>
            <path class="cls-3" d="M288.5,261.77h0c7.52,6.13,12.19,7.7,20.95.99,5.27-4.05-.02-11.41-7.09-18.06.09,8.46-2.23,18.27-13.85,17.07Z"/>
            <path d="M284.14,229.54c-8.45,8.04-12.29,19.01-3.32,26.8,12.37,10.74,17.36,16.19,29.18,7.13,10.47-8.03-14.77-26.73-25.85-33.93ZM308.91,262.05c-10.64,8.16-14.66,3.6-26.93-7.06-7.75-6.73-4.59-15.91,2.38-23.18,8.92,5.94,33.07,23.71,24.55,30.25Z"/>
          </g>
          <g>
            <path class="cls-6" d="M349.98,228.9c-2.22-9.93-6.03-8.62-6.03-8.62,0,0,2.78-7.26-6.01-13.75-1.23-.91-2.82-1.21-4.29-.79h-.04c1.38-1.97,3.04-4.03,5.03-6.08,4.41-4.55,9.34-8.45,14.21-12.48,1.68-1.39,3.24-3.14,3.65-5.29.31-1.6-.05-3.26-.58-4.81-.65-1.9-1.59-3.73-2.97-5.19-2.14-2.24-5.33-3.43-8.41-3.13-6.92.67-12.23,9.4-15.85,14.58-3.57,5.11-5.95,9.35-9.28,14.61-4.26,6.71-11.12,10.36-13.99,11.48-1.55-.27-1.22-.5-1.96-1.31-5.04-5.49.72-15.6-8.07-24.46-8.8-8.86-19.57-6.85-20.55-2.22-.97,4.63,10.79,8.81,8.81,16.07-1.9,6.96-10.77,38.65,3.33,49.26,1.64,1.23,3.28,2.46,4.87,3.77,4.91,4.03,14.98,11.35,21.69,9.85,9.17-2.05,38.68-21.57,36.46-31.5Z"/>
            <path class="cls-3" d="M349.98,228.9c-.52-2.3-1.12-4-1.73-5.26-1.24,3.3-3.3,7.55-6.61,11.81-6.56,8.42-30.02,22.73-43.82,19.55,5,3.34,11.14,6.42,15.71,5.4,9.17-2.05,38.68-21.57,36.46-31.5Z"/>
            <path class="cls-3" d="M344.06,214.93c-3.84,10.4-12.58,18.83-12.58,18.83,5.13-1.15,12.47-13.48,12.47-13.48,0,0,.18-1.18.42-2.75,0-.76-.07-1.64-.31-2.6Z"/>
            <path class="cls-3" d="M333.61,205.75c1.38-1.98,3.04-4.04,5.03-6.09,4.41-4.55,9.34-8.45,14.21-12.48,1.68-1.39,3.24-3.14,3.65-5.29.31-1.6-.05-3.26-.58-4.81,0,0,0-.02,0-.03-.54,1.21-1.52,2.82-3.26,4.99-4.86,6.06-20.54,16.17-23.43,19.58-2.89,3.41-6.45,12.45-6.45,12.45l10.88-8.34h-.04Z"/>
            <path d="M350.61,228.84c-.75-3.34-2.41-8.65-5.8-9.21,1.36-7.2-5.31-14.55-9.71-14.71,11.99-15.97,25.31-16.68,21.43-27.98-2.3-6.68-7.32-9.28-12.15-8.81-6.61.64-11.65,7.99-15.32,13.35-10.39,15.17-15.02,23.36-23,26.94-.88.4-1.94.16-2.55-.59,0,0-.01-.01-.02-.02-4.4-5.46,1.3-15.51-7.69-24.57-9.27-9.34-20.69-7.09-21.78-1.86-.51,2.42,1.7,4.55,4.03,6.8,7.14,6.88,4.53,8.81,4.72,9.47-11.41,41.67,2.54,48.06,3.95,50.02,6.41,4.82,18.29,15.46,26.88,13.54,9.51-2.13,39.36-21.88,37.02-32.38ZM313.36,259.69c-7.39,1.65-20.16-8.62-25.96-13.49-14.92-11.23-3.15-47.33-3.07-48.48,2.09-7.65-9.62-12.18-8.8-16.12.85-4.06,11.01-5.77,19.31,2.59,8.91,8.97,1.95,21.38,8.58,25.35,1.1.66,2.46.71,3.62.17,11.08-5.15,13.14-12.64,23.31-27.49,3.51-5.13,8.32-12.15,14.25-12.72,2.85-.28,5.84.84,7.81,2.91,2.07,2.17,3.89,6.61,3.36,9.35-.55,2.82-3.18,4.68-5.46,6.56-13.47,11.08-14.1,12.8-18.48,18.7,1.09-.16,3.38-1.59,5.67.1,8.2,6.06,5.87,12.62,5.76,12.9l-.58,1.47c1.36-.44,1.71-.82,2.74-.21.89.53,2.6,2.27,3.83,7.79,2.07,9.24-26.8,28.59-35.91,30.62Z"/>
          </g>
          <path d="M322.77,214.08c9.99-8.16,11.04-10.22,11.94-9.17,1,1.17-1.86,1.87-11.94,9.17Z"/>
          <path d="M331.13,234.28c11.96-8.32,11.15-15.7,13.17-14.68,2,1.01-4.91,9.82-13.17,14.68Z"/>
          <path d="M370.11,169c3.15,7.3,3.08,16.3-2.76,21.6-.48.43-1.14-.26-.7-.72.59-1.06,7.66-6.9,3.45-20.88Z"/>
          <path d="M362.77,172.55c3.13,9,1.87,19.71-5.21,26.35-.56.52-1.37-.29-.84-.84.25-.87,9.92-8.47,6.05-25.51Z"/>
        </g>
        <path class="cls-1" d="M285.29,217.95s-4.83,11.61,2.97,22.64c7.8,11.03,21.62,8.5,28.89,3.85,7.27-4.65,6.33-9.1-5.85-16.83-12.18-7.73-22.09-20.41-26.01-9.67Z"/>
        <path class="cls-1" d="M345.06,173.24s-11.17,9.11-10.04,14.19c1.14,5.08,17.55-6.53,14.92-11.09-2.63-4.56-4.88-3.1-4.88-3.1Z"/>
      </g>
    </g>
  </g>
</svg>